# xmcd
#
# Track frame offsets: 
#        150
#        21029
#        40843
#        57958
#        70206
#        85239
#        108733
#        123082
#        151031
#        170217
#        190518
#        211886
#        227081
#
# Disc length: 3548 seconds
#
# Revision: 0
# Processed by: cddbd v1.5.2PL0 Copyright (c) Steve Scherf et al.
# Submitted via: ExactAudioCopy v1.0b4
#
DISCID=a50dda0d
DTITLE=Ari Borger and Igor Prado - Lowdown Boogie
DYEAR=2013
DGENRE=Blues
TTITLE0=Fat Meat and Greens
TTITLE1=Newborn Shuffle
TTITLE2=Joogie Boogie
TTITLE3=Lowdown Boogie
TTITLE4=Rocking At The Philarmonic
TTITLE5=Bee Hive
TTITLE6=Boogie Woogie Barbecue
TTITLE7=Blues For Rafa
TTITLE8=Blues Jeans
TTITLE9=88' Swing
TTITLE10=Rock-It
TTITLE11=Getting Fat - Bonus Track
TTITLE12=Yancey Special - Bonus Track
EXTD=
EXTT0=
EXTT1=
EXTT2=
EXTT3=
EXTT4=
EXTT5=
EXTT6=
EXTT7=
EXTT8=
EXTT9=
EXTT10=
EXTT11=
EXTT12=
PLAYORDER=
